<svg xmlns="http://www.w3.org/2000/svg" xmlns:xlink="http://www.w3.org/1999/xlink" preserveAspectRatio="xMidYMid" width="299.96" height="218.996" viewBox="0 0 751.969 549">
  <defs>
    <style>
      .cls-1 {
        fill: #fff;
        fill-rule: evenodd;
      }
    </style>
  </defs>
  <path d="M480.331,217.843 C480.331,237.788 480.331,257.739 480.331,277.684 C480.332,291.395 480.875,305.626 478.072,316.638 C471.556,342.235 456.972,360.722 437.034,372.904 C428.436,378.157 418.438,381.695 407.103,384.195 C401.833,384.697 396.561,385.198 391.290,385.700 C391.290,418.127 391.290,450.563 391.290,482.990 C385.957,482.990 380.623,482.990 375.290,482.990 C375.227,480.920 375.164,478.849 375.101,476.780 C374.976,476.905 374.850,477.031 374.725,477.156 C371.154,478.754 368.264,481.123 363.807,482.237 C359.383,483.342 352.361,483.360 347.806,482.425 C329.985,478.768 321.623,468.497 318.439,450.246 C313.502,421.942 337.120,397.569 365.313,406.024 C369.148,407.174 372.203,409.066 375.101,411.105 C375.164,411.105 375.227,411.105 375.290,411.105 C375.227,402.575 375.164,394.042 375.101,385.512 C362.528,385.645 348.126,386.544 337.452,384.195 C299.979,375.947 275.492,352.365 266.295,315.885 C263.669,305.468 264.224,292.092 264.225,279.190 C264.225,260.060 264.225,240.924 264.225,221.795 C232.631,219.418 217.431,206.152 207.939,181.900 C203.911,171.607 200.853,155.297 205.869,143.700 C208.850,136.805 214.725,131.796 221.116,128.269 C223.438,127.265 225.760,126.261 228.081,125.258 C228.055,120.800 229.195,116.247 230.152,112.462 C233.838,97.887 237.617,85.389 244.271,74.073 C263.949,40.604 289.994,17.980 330.864,5.575 C344.270,1.506 367.381,-1.935 384.890,1.247 C393.866,2.878 402.356,4.012 410.303,6.516 C455.924,20.888 485.477,51.710 502.355,94.961 C505.612,103.306 506.881,112.536 508.756,122.247 C511.984,122.787 514.975,124.563 517.415,126.011 C532.420,134.915 537.959,151.515 531.157,173.244 C524.462,194.629 507.309,217.405 480.331,217.843 ZM366.630,15.172 C361.548,15.548 356.464,15.925 351.382,16.301 C342.062,18.056 333.210,19.586 325.216,22.699 C281.180,39.848 253.729,71.620 243.329,122.623 C258.100,121.966 272.566,122.957 284.743,125.822 C290.158,127.097 297.478,130.241 293.214,137.490 C289.401,143.973 276.482,139.368 269.307,138.054 C252.354,134.951 228.978,136.848 221.493,146.522 C219.469,149.139 218.582,152.476 217.916,156.496 C216.530,164.862 221.214,175.360 223.564,180.771 C228.430,191.979 236.056,199.825 247.659,204.294 C271.383,213.431 301.669,199.681 318.063,192.438 C324.414,189.632 331.642,186.625 336.887,182.465 C334.159,179.087 330.162,176.752 327.475,173.244 C319.193,162.431 312.340,142.782 319.004,125.070 C302.099,118.292 293.167,104.524 288.508,85.364 C287.154,79.792 284.628,66.946 288.320,62.217 C291.168,58.570 298.743,57.412 303.944,56.196 C332.515,49.515 349.500,68.585 352.888,91.574 C353.077,91.574 353.265,91.574 353.453,91.574 C362.496,88.099 376.745,89.123 385.267,92.138 C404.066,98.789 426.128,120.713 420.092,149.533 C417.996,159.541 414.275,167.256 408.986,173.997 C406.790,176.192 404.593,178.388 402.397,180.583 C402.522,180.583 402.648,180.583 402.773,180.583 C406.723,184.341 415.858,187.823 421.221,190.180 C439.499,198.214 469.157,209.971 493.320,199.401 C508.482,192.769 515.923,176.892 519.109,158.190 C523.685,131.329 483.174,131.275 461.883,135.796 C455.329,137.188 447.122,139.771 443.999,133.914 C443.427,132.841 442.564,130.890 443.058,128.833 C444.400,123.242 449.610,123.185 455.294,121.871 C466.271,119.332 479.931,118.323 493.131,119.236 C493.131,119.048 493.131,118.860 493.131,118.672 C490.217,107.996 488.093,98.446 484.096,89.315 C466.453,49.016 424.758,15.046 366.630,15.172 ZM312.227,69.745 C308.913,71.019 304.769,71.182 301.686,72.003 C301.717,86.671 307.800,99.437 316.180,106.063 C317.511,107.116 324.078,112.516 325.781,111.332 C330.493,107.298 333.277,101.756 338.958,98.536 C336.958,82.228 331.032,69.492 312.227,69.745 ZM365.124,104.182 C362.175,104.809 359.226,105.436 356.277,106.063 C345.236,110.321 336.589,118.375 332.934,129.962 C326.191,151.340 339.345,168.790 353.641,174.938 C357.992,176.809 364.537,179.282 371.525,178.137 C387.197,175.569 397.527,168.203 402.962,155.555 C411.844,134.882 399.061,113.955 384.514,107.569 C379.022,105.158 373.290,104.135 365.124,104.182 ZM374.913,370.646 C374.913,352.896 374.913,335.140 374.913,317.391 C380.434,317.391 385.957,317.391 391.479,317.391 C391.479,335.140 391.479,352.896 391.479,370.646 C430.264,371.369 457.097,341.990 464.141,310.428 C466.934,297.918 465.271,279.187 465.271,264.700 C465.208,249.145 465.145,233.586 465.083,218.031 C457.886,218.137 450.942,216.334 445.129,214.644 C423.289,208.295 405.278,199.984 388.090,189.239 C381.382,191.247 372.793,194.411 363.242,192.815 C359.415,191.999 355.586,191.184 351.759,190.368 C348.438,194.593 339.571,197.831 334.629,200.718 C319.094,209.793 300.485,217.772 279.284,220.666 C279.284,234.401 279.284,248.141 279.284,261.877 C279.283,277.588 277.452,298.142 280.602,311.557 C287.959,342.888 308.878,362.716 340.652,369.705 C350.405,371.850 363.689,370.667 374.913,370.646 ZM329.169,230.075 C350.007,229.614 351.395,255.591 334.440,259.431 C323.102,261.999 313.640,251.437 316.933,240.613 C318.907,234.129 323.142,232.636 329.169,230.075 ZM411.056,230.075 C432.455,229.599 433.301,256.411 415.198,259.619 C404.491,261.516 395.463,250.054 399.008,240.048 C401.183,233.913 405.220,232.680 411.056,230.075 ZM59.225,431.428 C53.934,431.531 45.852,432.454 43.601,429.358 C42.214,427.451 42.706,423.943 43.224,421.266 C44.474,414.811 44.682,400.352 48.119,396.238 C51.433,392.271 71.195,395.205 78.050,393.980 C96.976,390.598 109.524,381.263 114.005,363.495 C115.160,358.912 115.654,352.084 114.193,347.311 C107.240,324.601 81.515,329.502 66.943,341.101 C63.903,343.522 56.339,354.381 50.754,350.322 C45.735,344.426 40.714,338.529 35.694,332.633 C34.150,330.690 31.505,329.126 30.988,326.235 C29.938,320.362 36.951,316.321 39.648,313.627 C50.219,303.064 63.275,294.958 79.556,290.104 C91.310,286.600 108.913,287.480 119.840,290.857 C145.345,298.739 168.666,323.577 159.372,360.484 C155.763,374.814 146.369,391.049 136.406,399.061 C133.223,401.621 128.609,403.034 126.052,406.212 C120.176,402.162 114.542,399.206 105.910,397.556 C100.133,396.451 92.145,397.259 87.839,399.249 C86.586,398.764 85.257,397.717 83.509,397.367 C78.010,396.267 63.784,397.137 61.484,399.437 C57.590,403.331 59.166,423.257 59.225,431.428 ZM531.345,397.367 C525.331,397.294 516.668,396.375 513.838,399.626 C511.236,402.615 511.767,408.699 511.768,414.304 C511.768,422.269 511.768,430.237 511.768,438.203 C511.893,442.656 512.019,447.110 512.144,451.563 C515.055,467.901 521.482,480.913 534.734,486.753 C538.247,487.820 541.762,488.886 545.275,489.952 C546.844,490.203 548.413,490.454 549.981,490.705 C548.213,494.522 546.030,495.746 540.193,495.598 C535.332,485.556 525.288,493.552 517.415,495.786 C517.053,498.402 511.682,499.218 510.826,504.254 C510.016,509.025 514.711,511.023 515.156,514.040 C514.717,516.925 514.278,519.811 513.838,522.696 C512.385,530.770 513.475,543.969 507.626,547.724 C504.407,549.791 492.166,548.665 486.919,548.665 C481.809,548.665 472.341,549.939 469.224,547.536 C466.046,545.085 467.665,537.498 468.471,533.234 C470.228,520.941 471.985,508.644 473.742,496.351 C447.516,496.351 421.282,496.351 395.055,496.351 C385.946,496.352 369.866,499.713 371.336,489.388 C377.247,492.540 395.684,491.510 398.067,486.565 C399.947,482.664 397.499,475.891 399.197,471.322 C402.093,484.407 425.427,493.824 443.434,489.952 C459.388,486.522 472.617,477.996 472.613,458.903 C475.185,458.903 477.758,458.903 480.331,458.903 C484.534,432.372 488.739,405.833 492.943,379.302 C483.908,389.776 474.871,400.254 465.836,410.728 C465.710,410.666 465.585,410.603 465.459,410.540 C461.657,401.533 443.078,395.705 429.128,397.556 C429.504,397.179 429.881,396.803 430.257,396.426 C457.801,364.564 485.353,332.693 512.897,300.831 C515.102,298.924 540.043,298.634 542.452,300.642 C545.432,303.127 542.280,320.340 541.322,325.482 C537.997,349.442 534.670,373.408 531.345,397.367 ZM294.720,377.232 C307.577,376.799 308.703,391.995 299.050,394.733 C292.271,396.656 285.547,390.333 287.944,383.254 C289.120,379.778 291.554,378.782 294.720,377.232 ZM66.755,404.895 C72.151,404.895 77.548,404.895 82.944,404.895 C83.007,406.400 83.070,407.906 83.132,409.411 C92.874,404.148 107.071,403.039 117.205,409.035 C119.598,410.451 122.463,412.542 124.170,414.680 C124.962,415.672 125.456,416.880 126.617,417.503 C132.155,401.938 159.812,402.299 171.796,411.669 C188.088,424.408 184.665,454.291 184.597,482.990 C179.201,482.990 173.803,482.990 168.408,482.990 C168.408,474.146 168.408,465.300 168.408,456.456 C168.409,440.140 169.162,426.262 157.113,422.019 C155.084,421.304 151.424,420.506 148.265,421.078 C133.537,423.745 133.769,438.084 133.770,455.515 C133.770,464.672 133.770,473.832 133.770,482.990 C128.375,482.990 122.977,482.990 117.581,482.990 C117.581,474.083 117.581,465.174 117.581,456.268 C117.583,438.740 117.772,417.396 97.439,421.078 C82.719,423.744 82.943,438.294 82.944,455.703 C82.944,464.798 82.944,473.895 82.944,482.990 C77.548,482.990 72.151,482.990 66.755,482.990 C66.755,456.961 66.755,430.924 66.755,404.895 ZM254.436,404.895 C259.769,404.895 265.104,404.895 270.437,404.895 C270.437,430.924 270.437,456.961 270.437,482.990 C265.104,482.990 259.769,482.990 254.436,482.990 C254.373,480.920 254.310,478.849 254.248,476.780 C254.122,476.905 253.997,477.031 253.871,477.156 C250.300,478.754 247.410,481.123 242.953,482.237 C238.530,483.342 231.508,483.360 226.952,482.425 C209.131,478.768 200.769,468.497 197.586,450.246 C192.648,421.939 216.265,397.568 244.459,406.024 C248.294,407.174 251.350,409.066 254.248,411.105 C254.310,411.105 254.373,411.105 254.436,411.105 C254.436,409.035 254.436,406.964 254.436,404.895 ZM288.508,404.895 C293.904,404.895 299.302,404.895 304.697,404.895 C304.697,430.924 304.697,456.961 304.697,482.990 C299.302,482.990 293.904,482.990 288.508,482.990 C288.508,456.961 288.508,430.924 288.508,404.895 ZM447.576,427.665 C447.184,417.817 418.023,418.777 421.598,429.735 C423.853,436.648 435.355,433.972 443.058,435.568 C456.601,438.374 470.979,450.482 463.388,468.123 C458.188,480.210 439.293,486.852 421.786,481.484 C411.932,478.463 405.520,471.973 404.091,460.408 C404.217,460.408 404.342,460.408 404.468,460.408 C409.738,459.969 415.010,459.530 420.280,459.091 C420.701,470.601 452.259,469.388 448.705,457.209 C446.393,449.283 433.749,452.382 425.363,450.434 C408.648,446.553 398.003,429.102 410.868,413.175 C419.252,402.795 446.156,402.169 456.235,411.481 C457.682,412.818 466.272,422.966 463.388,426.347 C458.118,426.786 452.846,427.225 447.576,427.665 ZM519.297,404.895 C524.693,404.895 530.091,404.895 535.487,404.895 C535.487,413.676 535.487,422.459 535.487,431.240 C535.485,448.774 535.245,470.324 555.441,466.806 C570.366,464.206 570.125,450.104 570.124,432.557 C570.124,423.337 570.124,414.115 570.124,404.895 C575.520,404.895 580.917,404.895 586.313,404.895 C586.313,426.659 586.313,448.429 586.313,470.193 C586.314,485.833 586.568,499.439 580.477,508.582 C566.637,529.357 529.002,527.084 518.356,505.007 C519.723,503.683 531.475,497.916 533.039,498.044 C535.630,504.728 546.184,508.699 556.382,506.324 C565.921,504.103 570.120,497.627 570.124,485.812 C570.061,483.366 569.998,480.919 569.936,478.473 C566.633,480.545 562.657,481.967 558.076,482.802 C549.583,484.348 541.323,481.742 536.428,478.850 C515.221,466.320 519.228,437.818 519.297,404.895 ZM631.492,404.895 C651.094,404.674 662.782,411.341 668.576,424.654 C670.996,430.213 672.153,436.373 672.153,444.413 C672.152,466.758 660.618,479.515 641.469,482.802 C609.970,488.208 590.412,455.790 601.749,426.912 C605.306,417.852 612.068,410.702 621.138,407.153 C624.242,405.938 628.084,406.237 631.492,404.895 ZM684.954,404.895 C690.349,404.895 695.747,404.895 701.143,404.895 C701.143,413.676 701.143,422.459 701.143,431.240 C701.141,448.774 700.901,470.324 721.097,466.806 C735.970,464.215 735.781,450.231 735.780,432.745 C735.780,423.463 735.780,414.177 735.780,404.895 C741.176,404.895 746.573,404.895 751.969,404.895 C751.969,430.924 751.969,456.961 751.969,482.990 C746.573,482.990 741.176,482.990 735.780,482.990 C735.717,481.484 735.654,479.979 735.592,478.473 C732.251,480.515 728.337,481.964 723.732,482.802 C715.272,484.341 706.940,481.772 702.084,478.850 C680.903,466.104 684.884,437.985 684.954,404.895 ZM230.529,421.078 C228.835,421.455 227.140,421.831 225.446,422.207 C220.669,424.030 217.133,427.622 215.281,432.369 C208.113,450.735 218.563,471.343 239.564,466.430 C252.654,463.368 258.540,446.167 252.177,431.428 C248.813,423.636 242.010,420.938 230.529,421.078 ZM351.382,421.078 C349.688,421.455 347.994,421.831 346.300,422.207 C341.238,424.139 337.892,427.876 335.946,432.934 C328.931,451.168 339.900,471.230 360.418,466.430 C373.524,463.364 379.381,446.178 373.031,431.428 C369.674,423.633 362.858,420.938 351.382,421.078 ZM632.245,421.078 C630.551,421.455 628.856,421.831 627.162,422.207 C622.379,424.031 618.849,427.615 616.997,432.369 C609.820,450.786 620.218,471.344 641.281,466.430 C654.510,463.343 660.870,444.971 653.517,430.487 C649.897,423.357 643.302,420.941 632.245,421.078 ZM97.816,428.605 C101.169,428.581 104.030,428.537 105.910,429.923 C112.383,434.695 110.054,461.019 110.051,472.828 C110.050,479.974 109.318,486.929 113.816,489.576 C116.244,491.005 120.381,490.705 124.170,490.705 C129.834,490.705 136.387,491.294 139.230,488.447 C142.027,485.645 141.301,478.746 141.300,473.204 C141.299,460.730 141.003,447.083 142.053,435.756 C142.241,435.882 142.430,436.007 142.618,436.133 C143.559,437.952 144.501,439.771 145.442,441.590 C147.311,445.850 148.552,450.398 149.583,455.515 C151.482,464.937 149.633,476.730 147.512,484.307 C140.978,507.661 126.642,523.602 105.910,532.669 C99.386,535.523 92.231,537.431 84.450,539.068 C47.743,546.790 13.464,528.674 0.681,508.018 C-0.883,505.490 0.439,501.552 1.810,499.738 C7.834,494.344 13.859,488.948 19.882,483.554 C21.516,481.995 23.613,478.992 27.600,479.979 C31.650,480.981 33.347,486.105 36.259,488.447 C43.294,494.105 54.797,503.099 69.390,500.679 C88.554,497.500 98.875,488.453 102.333,469.629 C103.361,464.037 102.783,457.192 101.016,452.693 C98.634,446.628 94.842,442.915 90.850,438.579 C91.500,432.938 93.613,430.743 97.816,428.605 ZM399.008,436.509 C402.170,442.704 404.265,449.347 410.680,452.128 C410.680,452.191 410.680,452.253 410.680,452.316 C405.809,452.249 402.146,453.391 399.008,454.763 C399.008,448.679 399.008,442.593 399.008,436.509 ZM429.504,458.903 C432.704,458.965 435.905,459.028 439.105,459.091 C436.397,459.224 431.869,459.896 429.504,458.903 Z" class="cls-1"/>
</svg>
